<mxfile host="Electron" agent="Mozilla/5.0 (Windows NT 10.0; Win64; x64) AppleWebKit/537.36 (KHTML, like Gecko) draw.io/28.1.2 Chrome/138.0.7204.243 Electron/37.4.0 Safari/537.36" version="28.1.2">
  <diagram id="WRtB7RnygOzZ15jAyTM6" name="ページ1">
    <mxGraphModel dx="1464" dy="737" grid="1" gridSize="10" guides="1" tooltips="1" connect="1" arrows="1" fold="1" page="1" pageScale="1" pageWidth="827" pageHeight="1169" math="0" shadow="0">
      <root>
        <mxCell id="0" />
        <mxCell id="1" parent="0" />
        <mxCell id="BTnaZ9Mj3D2ea35wuB5Z-2" value="&lt;b&gt;図書貸出&lt;/b&gt;&lt;div&gt;&lt;b&gt;画面&lt;/b&gt;&lt;/div&gt;" style="shape=umlBoundary;whiteSpace=wrap;html=1;fillColor=#D5E8D4;" parent="1" vertex="1">
          <mxGeometry x="180" y="45" width="100" height="80" as="geometry" />
        </mxCell>
        <mxCell id="BTnaZ9Mj3D2ea35wuB5Z-5" value="Actor" style="shape=umlActor;verticalLabelPosition=bottom;verticalAlign=top;html=1;" parent="1" vertex="1">
          <mxGeometry x="30" y="55" width="30" height="60" as="geometry" />
        </mxCell>
        <mxCell id="BTnaZ9Mj3D2ea35wuB5Z-7" style="edgeStyle=none;rounded=0;orthogonalLoop=1;jettySize=auto;html=1;entryX=-0.01;entryY=0.496;entryDx=0;entryDy=0;entryPerimeter=0;" parent="1" source="BTnaZ9Mj3D2ea35wuB5Z-5" target="BTnaZ9Mj3D2ea35wuB5Z-2" edge="1">
          <mxGeometry relative="1" as="geometry" />
        </mxCell>
        <mxCell id="BTnaZ9Mj3D2ea35wuB5Z-26" value="&lt;span style=&quot;font-size: 12px; background-color: rgb(236, 236, 236);&quot;&gt;貸出メニューを押す&lt;/span&gt;" style="edgeLabel;html=1;align=center;verticalAlign=middle;resizable=0;points=[];" parent="BTnaZ9Mj3D2ea35wuB5Z-7" vertex="1" connectable="0">
          <mxGeometry x="-0.1368" y="4" relative="1" as="geometry">
            <mxPoint x="4" y="-6" as="offset" />
          </mxGeometry>
        </mxCell>
        <mxCell id="BTnaZ9Mj3D2ea35wuB5Z-10" value="&lt;div&gt;&lt;span style=&quot;background-color: transparent; color: light-dark(rgb(0, 0, 0), rgb(255, 255, 255));&quot;&gt;会員の氏名&lt;/span&gt;&lt;/div&gt;&lt;div&gt;会員種別を&lt;/div&gt;&lt;div&gt;表示&lt;/div&gt;" style="ellipse;shape=umlControl;whiteSpace=wrap;html=1;fillColor=#F8CECC;" parent="1" vertex="1">
          <mxGeometry x="480" y="170" width="80" height="90" as="geometry" />
        </mxCell>
        <mxCell id="BTnaZ9Mj3D2ea35wuB5Z-11" style="edgeStyle=none;rounded=0;orthogonalLoop=1;jettySize=auto;html=1;entryX=-0.021;entryY=0.42;entryDx=0;entryDy=0;exitX=0.996;exitY=0.496;exitDx=0;exitDy=0;exitPerimeter=0;entryPerimeter=0;" parent="1" source="BTnaZ9Mj3D2ea35wuB5Z-19" target="BTnaZ9Mj3D2ea35wuB5Z-15" edge="1">
          <mxGeometry relative="1" as="geometry">
            <mxPoint x="400" y="470" as="sourcePoint" />
            <mxPoint x="460" y="469.5" as="targetPoint" />
          </mxGeometry>
        </mxCell>
        <mxCell id="BTnaZ9Mj3D2ea35wuB5Z-12" value="確認" style="edgeLabel;html=1;align=center;verticalAlign=middle;resizable=0;points=[];" parent="BTnaZ9Mj3D2ea35wuB5Z-11" vertex="1" connectable="0">
          <mxGeometry x="-0.3112" y="-1" relative="1" as="geometry">
            <mxPoint x="10" y="-11" as="offset" />
          </mxGeometry>
        </mxCell>
        <mxCell id="BTnaZ9Mj3D2ea35wuB5Z-13" style="edgeStyle=none;rounded=0;orthogonalLoop=1;jettySize=auto;html=1;exitX=0.046;exitY=0.805;exitDx=0;exitDy=0;exitPerimeter=0;" parent="1" source="BTnaZ9Mj3D2ea35wuB5Z-19" target="BTnaZ9Mj3D2ea35wuB5Z-18" edge="1">
          <mxGeometry relative="1" as="geometry">
            <mxPoint x="600" y="620" as="targetPoint" />
          </mxGeometry>
        </mxCell>
        <mxCell id="BTnaZ9Mj3D2ea35wuB5Z-14" value="未登録or&lt;div&gt;未入力&lt;/div&gt;" style="edgeLabel;html=1;align=center;verticalAlign=middle;resizable=0;points=[];" parent="BTnaZ9Mj3D2ea35wuB5Z-13" vertex="1" connectable="0">
          <mxGeometry x="-0.2311" y="1" relative="1" as="geometry">
            <mxPoint x="-1" y="15" as="offset" />
          </mxGeometry>
        </mxCell>
        <mxCell id="BTnaZ9Mj3D2ea35wuB5Z-15" value="&lt;b&gt;会員情報&lt;/b&gt;" style="ellipse;shape=umlEntity;whiteSpace=wrap;html=1;fillColor=#D4E1F5;" parent="1" vertex="1">
          <mxGeometry x="660" y="50" width="80" height="80" as="geometry" />
        </mxCell>
        <mxCell id="BTnaZ9Mj3D2ea35wuB5Z-16" style="edgeStyle=none;rounded=0;orthogonalLoop=1;jettySize=auto;html=1;entryX=0.494;entryY=0.049;entryDx=0;entryDy=0;entryPerimeter=0;exitX=0.478;exitY=0.982;exitDx=0;exitDy=0;exitPerimeter=0;" parent="1" source="BTnaZ9Mj3D2ea35wuB5Z-19" target="BTnaZ9Mj3D2ea35wuB5Z-10" edge="1">
          <mxGeometry relative="1" as="geometry">
            <mxPoint x="480" y="130" as="sourcePoint" />
          </mxGeometry>
        </mxCell>
        <mxCell id="BTnaZ9Mj3D2ea35wuB5Z-17" value="&lt;span style=&quot;font-size: 12px; background-color: rgb(236, 236, 236);&quot;&gt;登録済み&lt;/span&gt;" style="edgeLabel;html=1;align=center;verticalAlign=middle;resizable=0;points=[];" parent="BTnaZ9Mj3D2ea35wuB5Z-16" vertex="1" connectable="0">
          <mxGeometry x="-0.0153" y="-2" relative="1" as="geometry">
            <mxPoint x="10" y="-6" as="offset" />
          </mxGeometry>
        </mxCell>
        <mxCell id="BTnaZ9Mj3D2ea35wuB5Z-18" value="「会員番号を&lt;div&gt;確認してください」と表示&lt;/div&gt;" style="ellipse;shape=umlControl;whiteSpace=wrap;html=1;fillColor=#F8CECC;" parent="1" vertex="1">
          <mxGeometry x="300" y="115" width="80" height="90" as="geometry" />
        </mxCell>
        <mxCell id="BTnaZ9Mj3D2ea35wuB5Z-19" value="&lt;b&gt;会員確認&lt;/b&gt;" style="ellipse;shape=umlControl;whiteSpace=wrap;html=1;fillColor=#F8CECC;" parent="1" vertex="1">
          <mxGeometry x="480" y="40" width="80" height="90" as="geometry" />
        </mxCell>
        <mxCell id="BTnaZ9Mj3D2ea35wuB5Z-20" value="" style="endArrow=block;dashed=1;endFill=0;endSize=12;html=1;rounded=0;exitX=-0.032;exitY=0.626;exitDx=0;exitDy=0;entryX=0.96;entryY=0.693;entryDx=0;entryDy=0;entryPerimeter=0;exitPerimeter=0;" parent="1" source="BTnaZ9Mj3D2ea35wuB5Z-15" target="BTnaZ9Mj3D2ea35wuB5Z-19" edge="1">
          <mxGeometry width="160" relative="1" as="geometry">
            <mxPoint x="380" y="389.33" as="sourcePoint" />
            <mxPoint x="430" y="200" as="targetPoint" />
          </mxGeometry>
        </mxCell>
        <mxCell id="BTnaZ9Mj3D2ea35wuB5Z-22" style="edgeStyle=none;rounded=0;orthogonalLoop=1;jettySize=auto;html=1;entryX=-0.032;entryY=0.498;entryDx=0;entryDy=0;entryPerimeter=0;" parent="1" source="BTnaZ9Mj3D2ea35wuB5Z-2" target="BTnaZ9Mj3D2ea35wuB5Z-19" edge="1">
          <mxGeometry relative="1" as="geometry">
            <Array as="points" />
          </mxGeometry>
        </mxCell>
        <mxCell id="BTnaZ9Mj3D2ea35wuB5Z-23" value="会員番号を入力" style="edgeLabel;html=1;align=center;verticalAlign=middle;resizable=0;points=[];" parent="BTnaZ9Mj3D2ea35wuB5Z-22" vertex="1" connectable="0">
          <mxGeometry x="-0.1187" y="1" relative="1" as="geometry">
            <mxPoint x="12" y="-14" as="offset" />
          </mxGeometry>
        </mxCell>
        <mxCell id="BTnaZ9Mj3D2ea35wuB5Z-24" style="edgeStyle=none;rounded=0;orthogonalLoop=1;jettySize=auto;html=1;entryX=0.931;entryY=0.87;entryDx=0;entryDy=0;entryPerimeter=0;exitX=0.057;exitY=0.368;exitDx=0;exitDy=0;exitPerimeter=0;" parent="1" source="BTnaZ9Mj3D2ea35wuB5Z-18" target="BTnaZ9Mj3D2ea35wuB5Z-2" edge="1">
          <mxGeometry relative="1" as="geometry" />
        </mxCell>
        <mxCell id="BTnaZ9Mj3D2ea35wuB5Z-30" value="&lt;b&gt;図書確認&lt;/b&gt;" style="ellipse;shape=umlControl;whiteSpace=wrap;html=1;fillColor=#F8CECC;" parent="1" vertex="1">
          <mxGeometry x="480" y="300" width="80" height="90" as="geometry" />
        </mxCell>
        <mxCell id="BTnaZ9Mj3D2ea35wuB5Z-53" style="edgeStyle=none;rounded=0;orthogonalLoop=1;jettySize=auto;html=1;entryX=0.997;entryY=0.514;entryDx=0;entryDy=0;entryPerimeter=0;exitX=0.5;exitY=0.998;exitDx=0;exitDy=0;exitPerimeter=0;" parent="1" source="BTnaZ9Mj3D2ea35wuB5Z-57" target="BTnaZ9Mj3D2ea35wuB5Z-39" edge="1">
          <mxGeometry relative="1" as="geometry">
            <mxPoint x="430" y="465" as="targetPoint" />
            <mxPoint x="440" y="545" as="sourcePoint" />
            <Array as="points">
              <mxPoint x="520" y="680" />
            </Array>
          </mxGeometry>
        </mxCell>
        <mxCell id="BTnaZ9Mj3D2ea35wuB5Z-54" value="貸出を保存を確認" style="edgeLabel;html=1;align=center;verticalAlign=middle;resizable=0;points=[];" parent="BTnaZ9Mj3D2ea35wuB5Z-53" vertex="1" connectable="0">
          <mxGeometry x="0.2421" y="-2" relative="1" as="geometry">
            <mxPoint x="16" y="-13" as="offset" />
          </mxGeometry>
        </mxCell>
        <mxCell id="BTnaZ9Mj3D2ea35wuB5Z-55" style="edgeStyle=none;rounded=0;orthogonalLoop=1;jettySize=auto;html=1;entryX=0;entryY=0.5;entryDx=0;entryDy=0;exitX=1.046;exitY=0.499;exitDx=0;exitDy=0;exitPerimeter=0;" parent="1" source="BTnaZ9Mj3D2ea35wuB5Z-57" target="BTnaZ9Mj3D2ea35wuB5Z-50" edge="1">
          <mxGeometry relative="1" as="geometry" />
        </mxCell>
        <mxCell id="BTnaZ9Mj3D2ea35wuB5Z-56" value="保存" style="edgeLabel;html=1;align=center;verticalAlign=middle;resizable=0;points=[];" parent="BTnaZ9Mj3D2ea35wuB5Z-55" vertex="1" connectable="0">
          <mxGeometry x="0.2911" relative="1" as="geometry">
            <mxPoint x="-24" y="-19" as="offset" />
          </mxGeometry>
        </mxCell>
        <mxCell id="BTnaZ9Mj3D2ea35wuB5Z-58" style="edgeStyle=none;rounded=0;orthogonalLoop=1;jettySize=auto;html=1;entryX=0.501;entryY=0.065;entryDx=0;entryDy=0;entryPerimeter=0;" parent="1" source="BTnaZ9Mj3D2ea35wuB5Z-33" target="BTnaZ9Mj3D2ea35wuB5Z-57" edge="1">
          <mxGeometry relative="1" as="geometry">
            <mxPoint x="520" y="530" as="targetPoint" />
          </mxGeometry>
        </mxCell>
        <mxCell id="BTnaZ9Mj3D2ea35wuB5Z-59" value="貸出を押す" style="edgeLabel;html=1;align=center;verticalAlign=middle;resizable=0;points=[];" parent="BTnaZ9Mj3D2ea35wuB5Z-58" vertex="1" connectable="0">
          <mxGeometry x="-0.1321" y="3" relative="1" as="geometry">
            <mxPoint y="-1" as="offset" />
          </mxGeometry>
        </mxCell>
        <mxCell id="BTnaZ9Mj3D2ea35wuB5Z-76" style="edgeStyle=none;rounded=0;orthogonalLoop=1;jettySize=auto;html=1;entryX=1.024;entryY=0.556;entryDx=0;entryDy=0;entryPerimeter=0;exitX=1;exitY=0.578;exitDx=0;exitDy=0;exitPerimeter=0;" parent="1" source="BTnaZ9Mj3D2ea35wuB5Z-33" target="BTnaZ9Mj3D2ea35wuB5Z-10" edge="1">
          <mxGeometry relative="1" as="geometry">
            <mxPoint x="770" y="210" as="targetPoint" />
            <Array as="points">
              <mxPoint x="770" y="472" />
              <mxPoint x="770" y="220" />
            </Array>
          </mxGeometry>
        </mxCell>
        <mxCell id="BTnaZ9Mj3D2ea35wuB5Z-77" value="複数の&lt;div&gt;貸し出し&lt;/div&gt;" style="edgeLabel;html=1;align=center;verticalAlign=middle;resizable=0;points=[];" parent="BTnaZ9Mj3D2ea35wuB5Z-76" vertex="1" connectable="0">
          <mxGeometry x="-0.036" y="-1" relative="1" as="geometry">
            <mxPoint y="-18" as="offset" />
          </mxGeometry>
        </mxCell>
        <mxCell id="BTnaZ9Mj3D2ea35wuB5Z-79" style="edgeStyle=none;rounded=0;orthogonalLoop=1;jettySize=auto;html=1;entryX=1.028;entryY=0.632;entryDx=0;entryDy=0;entryPerimeter=0;exitX=0.009;exitY=0.729;exitDx=0;exitDy=0;exitPerimeter=0;endArrow=none;endFill=0;startArrow=classic;startFill=1;" parent="1" source="BTnaZ9Mj3D2ea35wuB5Z-33" target="BTnaZ9Mj3D2ea35wuB5Z-80" edge="1">
          <mxGeometry relative="1" as="geometry">
            <mxPoint x="610" y="490" as="targetPoint" />
          </mxGeometry>
        </mxCell>
        <mxCell id="BTnaZ9Mj3D2ea35wuB5Z-84" value="一覧から削除" style="edgeLabel;html=1;align=center;verticalAlign=middle;resizable=0;points=[];" parent="BTnaZ9Mj3D2ea35wuB5Z-79" vertex="1" connectable="0">
          <mxGeometry x="-0.2044" relative="1" as="geometry">
            <mxPoint y="11" as="offset" />
          </mxGeometry>
        </mxCell>
        <mxCell id="BTnaZ9Mj3D2ea35wuB5Z-33" value="&lt;div&gt;&lt;span style=&quot;background-color: transparent; color: light-dark(rgb(0, 0, 0), rgb(255, 255, 255));&quot;&gt;貸出一覧に&lt;/span&gt;&lt;/div&gt;&lt;div&gt;&lt;span style=&quot;background-color: transparent; color: light-dark(rgb(0, 0, 0), rgb(255, 255, 255));&quot;&gt;書名を&lt;/span&gt;&lt;span style=&quot;background-color: transparent; color: light-dark(rgb(0, 0, 0), rgb(255, 255, 255));&quot;&gt;表示&lt;/span&gt;&lt;/div&gt;" style="ellipse;shape=umlControl;whiteSpace=wrap;html=1;fillColor=#F8CECC;" parent="1" vertex="1">
          <mxGeometry x="480" y="420" width="80" height="90" as="geometry" />
        </mxCell>
        <mxCell id="BTnaZ9Mj3D2ea35wuB5Z-34" style="edgeStyle=none;rounded=0;orthogonalLoop=1;jettySize=auto;html=1;entryX=0.515;entryY=0.109;entryDx=0;entryDy=0;entryPerimeter=0;" parent="1" source="BTnaZ9Mj3D2ea35wuB5Z-30" target="BTnaZ9Mj3D2ea35wuB5Z-33" edge="1">
          <mxGeometry relative="1" as="geometry" />
        </mxCell>
        <mxCell id="BTnaZ9Mj3D2ea35wuB5Z-35" value="登録済み" style="edgeLabel;html=1;align=center;verticalAlign=middle;resizable=0;points=[];" parent="BTnaZ9Mj3D2ea35wuB5Z-34" vertex="1" connectable="0">
          <mxGeometry x="-0.3262" relative="1" as="geometry">
            <mxPoint x="-1" y="7" as="offset" />
          </mxGeometry>
        </mxCell>
        <mxCell id="BTnaZ9Mj3D2ea35wuB5Z-36" value="「管理番号を確認してください」と表示" style="ellipse;shape=umlControl;whiteSpace=wrap;html=1;fillColor=#F8CECC;" parent="1" vertex="1">
          <mxGeometry x="300" y="240" width="80" height="90" as="geometry" />
        </mxCell>
        <mxCell id="BTnaZ9Mj3D2ea35wuB5Z-37" style="edgeStyle=none;rounded=0;orthogonalLoop=1;jettySize=auto;html=1;entryX=1.049;entryY=0.596;entryDx=0;entryDy=0;entryPerimeter=0;" parent="1" source="BTnaZ9Mj3D2ea35wuB5Z-30" target="BTnaZ9Mj3D2ea35wuB5Z-36" edge="1">
          <mxGeometry relative="1" as="geometry" />
        </mxCell>
        <mxCell id="BTnaZ9Mj3D2ea35wuB5Z-38" value="&lt;div&gt;未登録or&lt;/div&gt;未入力" style="edgeLabel;html=1;align=center;verticalAlign=middle;resizable=0;points=[];" parent="BTnaZ9Mj3D2ea35wuB5Z-37" vertex="1" connectable="0">
          <mxGeometry x="-0.2175" relative="1" as="geometry">
            <mxPoint x="-23" y="14" as="offset" />
          </mxGeometry>
        </mxCell>
        <mxCell id="BTnaZ9Mj3D2ea35wuB5Z-39" value="&lt;b&gt;貸出完了&lt;/b&gt;&lt;div&gt;&lt;b&gt;画面&lt;/b&gt;&lt;/div&gt;" style="shape=umlBoundary;whiteSpace=wrap;html=1;fillColor=#D5E8D4;" parent="1" vertex="1">
          <mxGeometry x="190" y="640" width="100" height="80" as="geometry" />
        </mxCell>
        <mxCell id="BTnaZ9Mj3D2ea35wuB5Z-41" style="edgeStyle=none;rounded=0;orthogonalLoop=1;jettySize=auto;html=1;entryX=0.125;entryY=0.889;entryDx=0;entryDy=0;entryPerimeter=0;" parent="1" source="BTnaZ9Mj3D2ea35wuB5Z-36" target="BTnaZ9Mj3D2ea35wuB5Z-10" edge="1">
          <mxGeometry relative="1" as="geometry" />
        </mxCell>
        <mxCell id="BTnaZ9Mj3D2ea35wuB5Z-42" style="edgeStyle=none;rounded=0;orthogonalLoop=1;jettySize=auto;html=1;entryX=0;entryY=0.5;entryDx=0;entryDy=0;exitX=1.043;exitY=0.555;exitDx=0;exitDy=0;exitPerimeter=0;" parent="1" source="BTnaZ9Mj3D2ea35wuB5Z-30" target="BTnaZ9Mj3D2ea35wuB5Z-44" edge="1">
          <mxGeometry relative="1" as="geometry">
            <mxPoint x="532.3199999999999" y="333.9699999999999" as="sourcePoint" />
            <mxPoint x="490.28" y="719.5" as="targetPoint" />
          </mxGeometry>
        </mxCell>
        <mxCell id="BTnaZ9Mj3D2ea35wuB5Z-43" value="確認" style="edgeLabel;html=1;align=center;verticalAlign=middle;resizable=0;points=[];" parent="BTnaZ9Mj3D2ea35wuB5Z-42" vertex="1" connectable="0">
          <mxGeometry x="-0.3112" y="-1" relative="1" as="geometry">
            <mxPoint x="10" y="-11" as="offset" />
          </mxGeometry>
        </mxCell>
        <mxCell id="BTnaZ9Mj3D2ea35wuB5Z-44" value="&lt;b&gt;図書情報&lt;/b&gt;" style="ellipse;shape=umlEntity;whiteSpace=wrap;html=1;fillColor=#D4E1F5;" parent="1" vertex="1">
          <mxGeometry x="660.0000000000001" y="310" width="80" height="80" as="geometry" />
        </mxCell>
        <mxCell id="BTnaZ9Mj3D2ea35wuB5Z-45" value="" style="endArrow=block;dashed=1;endFill=0;endSize=12;html=1;rounded=0;entryX=1.003;entryY=0.738;entryDx=0;entryDy=0;entryPerimeter=0;exitX=0.057;exitY=0.685;exitDx=0;exitDy=0;exitPerimeter=0;" parent="1" source="BTnaZ9Mj3D2ea35wuB5Z-44" target="BTnaZ9Mj3D2ea35wuB5Z-30" edge="1">
          <mxGeometry width="160" relative="1" as="geometry">
            <mxPoint x="657" y="346" as="sourcePoint" />
            <mxPoint x="530" y="359.0799999999999" as="targetPoint" />
          </mxGeometry>
        </mxCell>
        <mxCell id="BTnaZ9Mj3D2ea35wuB5Z-46" style="edgeStyle=none;rounded=0;orthogonalLoop=1;jettySize=auto;html=1;entryX=0.503;entryY=0.105;entryDx=0;entryDy=0;entryPerimeter=0;" parent="1" source="BTnaZ9Mj3D2ea35wuB5Z-10" target="BTnaZ9Mj3D2ea35wuB5Z-30" edge="1">
          <mxGeometry relative="1" as="geometry" />
        </mxCell>
        <mxCell id="BTnaZ9Mj3D2ea35wuB5Z-47" value="管理番号を入力" style="edgeLabel;html=1;align=center;verticalAlign=middle;resizable=0;points=[];" parent="BTnaZ9Mj3D2ea35wuB5Z-46" vertex="1" connectable="0">
          <mxGeometry x="-0.2527" y="-3" relative="1" as="geometry">
            <mxPoint as="offset" />
          </mxGeometry>
        </mxCell>
        <mxCell id="BTnaZ9Mj3D2ea35wuB5Z-49" value="「貸し出す&lt;div&gt;書籍を入力してください」と表示&lt;/div&gt;" style="ellipse;shape=umlControl;whiteSpace=wrap;html=1;fillColor=#F8CECC;" parent="1" vertex="1">
          <mxGeometry x="300" y="540" width="80" height="90" as="geometry" />
        </mxCell>
        <mxCell id="BTnaZ9Mj3D2ea35wuB5Z-50" value="&lt;b&gt;貸出情報&lt;/b&gt;" style="ellipse;shape=umlEntity;whiteSpace=wrap;html=1;fillColor=#D4E1F5;" parent="1" vertex="1">
          <mxGeometry x="660" y="545" width="80" height="80" as="geometry" />
        </mxCell>
        <mxCell id="BTnaZ9Mj3D2ea35wuB5Z-62" style="edgeStyle=none;rounded=0;orthogonalLoop=1;jettySize=auto;html=1;" parent="1" source="BTnaZ9Mj3D2ea35wuB5Z-57" target="BTnaZ9Mj3D2ea35wuB5Z-49" edge="1">
          <mxGeometry relative="1" as="geometry" />
        </mxCell>
        <mxCell id="BTnaZ9Mj3D2ea35wuB5Z-63" value="一冊も確定&lt;div&gt;していない&lt;/div&gt;" style="edgeLabel;html=1;align=center;verticalAlign=middle;resizable=0;points=[];" parent="BTnaZ9Mj3D2ea35wuB5Z-62" vertex="1" connectable="0">
          <mxGeometry x="0.4808" y="1" relative="1" as="geometry">
            <mxPoint x="36" y="-8" as="offset" />
          </mxGeometry>
        </mxCell>
        <mxCell id="BTnaZ9Mj3D2ea35wuB5Z-57" value="&lt;b&gt;貸出確認&lt;/b&gt;" style="ellipse;shape=umlControl;whiteSpace=wrap;html=1;fillColor=#F8CECC;" parent="1" vertex="1">
          <mxGeometry x="480" y="539.5" width="80" height="90" as="geometry" />
        </mxCell>
        <mxCell id="BTnaZ9Mj3D2ea35wuB5Z-60" value="&lt;div&gt;貸出できない理由を表示&lt;/div&gt;" style="ellipse;shape=umlControl;whiteSpace=wrap;html=1;fillColor=#F8CECC;" parent="1" vertex="1">
          <mxGeometry x="300" y="340" width="80" height="90" as="geometry" />
        </mxCell>
        <mxCell id="BTnaZ9Mj3D2ea35wuB5Z-61" value="" style="endArrow=block;dashed=1;endFill=0;endSize=12;html=1;rounded=0;entryX=1.024;entryY=0.697;entryDx=0;entryDy=0;entryPerimeter=0;exitX=0;exitY=0.688;exitDx=0;exitDy=0;exitPerimeter=0;" parent="1" source="BTnaZ9Mj3D2ea35wuB5Z-50" target="BTnaZ9Mj3D2ea35wuB5Z-57" edge="1">
          <mxGeometry width="160" relative="1" as="geometry">
            <mxPoint x="675" y="700" as="sourcePoint" />
            <mxPoint x="570" y="701" as="targetPoint" />
          </mxGeometry>
        </mxCell>
        <mxCell id="BTnaZ9Mj3D2ea35wuB5Z-64" style="edgeStyle=none;rounded=0;orthogonalLoop=1;jettySize=auto;html=1;entryX=0.963;entryY=0.432;entryDx=0;entryDy=0;entryPerimeter=0;exitX=-0.01;exitY=0.681;exitDx=0;exitDy=0;exitPerimeter=0;" parent="1" source="BTnaZ9Mj3D2ea35wuB5Z-30" target="BTnaZ9Mj3D2ea35wuB5Z-60" edge="1">
          <mxGeometry relative="1" as="geometry">
            <mxPoint x="480" y="370" as="sourcePoint" />
          </mxGeometry>
        </mxCell>
        <mxCell id="BTnaZ9Mj3D2ea35wuB5Z-65" value="貸出上限or&lt;span style=&quot;background-color: light-dark(#ffffff, var(--ge-dark-color, #121212)); color: light-dark(rgb(0, 0, 0), rgb(255, 255, 255));&quot;&gt;学生&lt;/span&gt;&lt;div&gt;&lt;span style=&quot;background-color: light-dark(#ffffff, var(--ge-dark-color, #121212)); color: light-dark(rgb(0, 0, 0), rgb(255, 255, 255));&quot;&gt;に雑誌の貸し出し&lt;/span&gt;&lt;/div&gt;" style="edgeLabel;html=1;align=center;verticalAlign=middle;resizable=0;points=[];" parent="BTnaZ9Mj3D2ea35wuB5Z-64" vertex="1" connectable="0">
          <mxGeometry x="-0.289" relative="1" as="geometry">
            <mxPoint x="-3" y="22" as="offset" />
          </mxGeometry>
        </mxCell>
        <mxCell id="BTnaZ9Mj3D2ea35wuB5Z-67" style="edgeStyle=none;rounded=0;orthogonalLoop=1;jettySize=auto;html=1;entryX=0.035;entryY=0.664;entryDx=0;entryDy=0;entryPerimeter=0;" parent="1" source="BTnaZ9Mj3D2ea35wuB5Z-60" target="BTnaZ9Mj3D2ea35wuB5Z-10" edge="1">
          <mxGeometry relative="1" as="geometry">
            <mxPoint x="479" y="220" as="targetPoint" />
            <Array as="points">
              <mxPoint x="290" y="385" />
              <mxPoint x="290" y="240" />
            </Array>
          </mxGeometry>
        </mxCell>
        <mxCell id="BTnaZ9Mj3D2ea35wuB5Z-68" style="edgeStyle=none;rounded=0;orthogonalLoop=1;jettySize=auto;html=1;entryX=-0.021;entryY=0.457;entryDx=0;entryDy=0;entryPerimeter=0;" parent="1" source="BTnaZ9Mj3D2ea35wuB5Z-49" target="BTnaZ9Mj3D2ea35wuB5Z-10" edge="1">
          <mxGeometry relative="1" as="geometry">
            <Array as="points">
              <mxPoint x="250" y="495" />
              <mxPoint x="250" y="215" />
            </Array>
          </mxGeometry>
        </mxCell>
        <mxCell id="BTnaZ9Mj3D2ea35wuB5Z-81" value="" style="edgeStyle=none;rounded=0;orthogonalLoop=1;jettySize=auto;html=1;startArrow=classic;startFill=1;endArrow=none;endFill=0;" parent="1" source="BTnaZ9Mj3D2ea35wuB5Z-80" target="BTnaZ9Mj3D2ea35wuB5Z-33" edge="1">
          <mxGeometry relative="1" as="geometry" />
        </mxCell>
        <mxCell id="BTnaZ9Mj3D2ea35wuB5Z-82" value="キャンセルを押す" style="edgeLabel;html=1;align=center;verticalAlign=middle;resizable=0;points=[];" parent="BTnaZ9Mj3D2ea35wuB5Z-81" vertex="1" connectable="0">
          <mxGeometry x="0.1041" y="-2" relative="1" as="geometry">
            <mxPoint x="-6" y="-16" as="offset" />
          </mxGeometry>
        </mxCell>
        <mxCell id="BTnaZ9Mj3D2ea35wuB5Z-80" value="&lt;b&gt;キャンセル&lt;/b&gt;&lt;div&gt;&lt;b&gt;確認&lt;/b&gt;&lt;/div&gt;" style="ellipse;shape=umlControl;whiteSpace=wrap;html=1;fillColor=#F8CECC;" parent="1" vertex="1">
          <mxGeometry x="300" y="440" width="80" height="90" as="geometry" />
        </mxCell>
      </root>
    </mxGraphModel>
  </diagram>
</mxfile>
